<svg id="Layer_1" xmlns="http://www.w3.org/2000/svg" x="0px" y="0px" viewBox="0 0 2000 1000" width="2000" height="1000" style="enable-background:new 0 0 2000 1000;" xml:space="preserve">
  <style type="text/css">
    .st0{fill:var(--color-text, #FFF);}
    .st1{fill:var(--color-highlight, #000);}
  </style>
  <g id="keys">
    <polygon class="st0" points="174.3,857.9 85.6,857.9 44.8,898.7 44.8,930.6 133.5,930.6 174.3,889.7 	"/>
    <polygon class="st0" points="299.5,857.9 210.8,857.9 170,898.7 170,930.6 258.7,930.6 299.5,889.7 	"/>
    <polygon class="st0" points="257.3,812.6 257.3,780.7 168.6,780.7 127.8,821.6 127.8,853.4 216.5,853.4 	"/>
    <polygon class="st0" points="382.6,780.7 293.9,780.7 253.1,821.6 253.1,853.4 341.8,853.4 382.6,812.6 	"/>
    <polygon class="st0" points="423.4,857.9 334.7,857.9 293.9,898.7 293.9,930.6 382.6,930.6 423.4,889.7 	"/>
    <polygon class="st0" points="419.2,898.7 419.2,930.6 507.9,930.6 548.7,889.7 548.7,857.9 460,857.9 	"/>
    <polygon class="st0" points="506.5,812.6 506.5,780.7 417.8,780.7 376.9,821.6 376.9,853.4 465.6,853.4 	"/>
    <polygon class="st0" points="502.2,821.6 502.2,853.4 590.9,853.4 631.7,812.6 631.7,780.7 543,780.7 	"/>
    <polygon class="st0" points="337.5,735.4 337.5,703.6 248.8,703.6 208,744.4 208,776.2 296.7,776.2 	"/>
    <polygon class="st0" points="333.3,776.2 422,776.2 462.8,735.4 462.8,703.6 374.1,703.6 333.3,744.4 	"/>
    <polygon class="st0" points="457.2,776.2 545.9,776.2 586.7,735.4 586.7,703.6 498,703.6 457.2,744.4 	"/>
    <polygon class="st0" points="623.3,703.6 582.4,744.4 582.4,776.2 671.1,776.2 712,735.4 712,703.6 	"/>
    <polygon class="st0" points="409.6,624.6 320.9,624.6 280.1,665.4 280.1,697.2 368.8,697.2 409.6,656.4 	"/>
    <polygon class="st0" points="534.9,624.6 446.2,624.6 405.4,665.4 405.4,697.2 494.1,697.2 534.9,656.4 	"/>
    <polygon class="st0" points="492.7,579.2 492.7,547.4 404,547.4 363.1,588.2 363.1,620.1 451.8,620.1 	"/>
    <polygon class="st0" points="617.9,547.4 529.2,547.4 488.4,588.2 488.4,620.1 577.1,620.1 617.9,579.2 	"/>
    <polygon class="st0" points="658.8,624.6 570.1,624.6 529.2,665.4 529.2,697.2 617.9,697.2 658.8,656.4 	"/>
    <polygon class="st0" points="654.5,665.4 654.5,697.2 743.2,697.2 784,656.4 784,624.6 695.3,624.6 	"/>
    <polygon class="st0" points="741.8,579.2 741.8,547.4 653.1,547.4 612.3,588.2 612.3,620.1 701,620.1 	"/>
    <polygon class="st0" points="737.5,588.2 737.5,620.1 826.2,620.1 867.1,579.2 867.1,547.4 778.4,547.4 	"/>
    <polygon class="st0" points="572.9,502.1 572.9,470.2 484.2,470.2 443.4,511.1 443.4,542.9 532.1,542.9 	"/>
    <polygon class="st0" points="568.6,542.9 657.3,542.9 698.2,502.1 698.2,470.2 609.5,470.2 568.6,511.1 	"/>
    <polygon class="st0" points="692.5,542.9 781.2,542.9 822,502.1 822,470.2 733.3,470.2 692.5,511.1 	"/>
    <polygon class="st0" points="858.6,470.2 817.8,511.1 817.8,542.9 906.5,542.9 947.3,502.1 947.3,470.2 	"/>
  </g>
  <path id="thumb" class="st1" d="M936.6,532.9l-135.2,67l-72.1,144l73,46.7l94-110.3l274.7,19.6l-1-33.6
    c-2.3-75.9-65.1-135.9-141-134.7L936.6,532.9z"/>
  <polygon id="pinky" class="st1" points="1022.9,403.8 852.1,470.6 874.4,550.7 815.7,548.9 759.3,452.9 912.1,280.3 1103.5,390.8 	
      "/>
  <polygon id="ring" class="st1" points="1085.9,295.4 720.3,385.9 685.7,501.8 672.5,595.7 739.6,603.4 780.8,472.9 877.5,385.9 "/>
  <polygon id="middle" class="st1" points="885.6,264.5 714.6,325.1 606.2,432.2 542.3,613.8 610.1,643.8 691.5,487.9 812.3,386.2 1089,341.4"/>
  <path id="index" class="st1" d="M982.1,260.2L754.4,128.7L566.8,235.9l-47.1,169.9l65.1,23.6L647.8,310l91-39.9l145.6,129l59.2-7.2 c38.8-4.7,64.2-43.1,53.3-80.6L982.1,260.2z"/>
  <path id="arm" class="st1" d="M1170.9,699.7l254-87.9l87.9-78.2l491.7-306.1L1779.9,51.8l-358.2,276.8l-439.6-68.4l-39.4,1.3 c-48.9,1.6-83.4,48.7-70.1,95.8l11.8,41.8l52.2,133.8l28.1,88L1170.9,699.7z"/>
</svg>
