<svg xmlns="http://www.w3.org/2000/svg" viewBox="0 0 40 50" width="40" height="50" style="enable-background:new 0 0 40 50" xml:space="preserve"><path d="M15.1 12.5 9.4 3.8c-1.3-2-3.9-2.5-5.7-1.1l-.2.3c-1.9 1.3-2.3 4.1-1 6l5.3 8.5c-3 1.8-2.4 5.1-2.4 5.1-2.2.9-3.2 2.6-3 5.1 0 0-2.9 3.2-2.1 7.5L6.7 45c3.5 5.3 10.4 6.6 15.3 2.9l4.6-3.5c3-2.2 4.7-5.9 4.7-9.7-.1-6.5 1-8.7-2-14.4L25.3 8c-.6-1.2-1.8-1.7-3-1.4l-.7.2c-1.2.3-2 1.5-2 2.8l.4 10.1-4.9-7.2z" style="opacity:.5"/><path d="M15.8 10.3 9.2 2.9C7.7 1.2 5.1 1 3.4 2.5l-.1.2c-1.8 1.5-1.9 4.2-.4 5.8l7.2 8.2c-2.8 2-1.9 5-1.9 5-2.1 1-2.9 2.7-2.5 5.1 0 0-3.7 2.5-2.4 6.4l7.3 8.4c4 4.6 11 5.1 15.5 1.1l4.2-3.8c2.8-2.4 4.1-6 3.7-9.6-.8-6.1.1-8.3-3.4-13.2l-5-9.1c-.7-1-2-1.4-3.1-1l-.7.3c-1.2.4-1.8 1.6-1.7 2.8l1.2 7.5-5.5-6.3z" style="fill:#fff"/></svg>