<svg xmlns="http://www.w3.org/2000/svg" viewBox="0 0 40 50" style="enable-background:new 0 0 40 50" xml:space="preserve" width="40" height="50"><path d="m17.2 12.2-5.7-8.1c-1.3-1.9-3.9-2.3-5.7-1l-.2.2C3.7 4.6 3.3 7.2 4.6 9l6.3 8.9c-3 1.7-2.4 4.8-2.4 4.8-2.2.8-3.2 2.4-3 4.8 0 0-3.9 2.1-3.1 6.1l6.4 9.1c3.5 5 10.4 6.2 15.3 2.7l4.6-3.3c3-2.1 4.7-5.5 4.7-9.1-.1-6.1 1-8.2-2-13.5l-4-9.6c-.6-1.1-1.8-1.6-3-1.3l-.7.2c-1.2.3-2 1.4-2 2.6l.4 7.6-4.9-6.8z" style="fill:#ff9494;stroke:#00117f;stroke-width:3;stroke-linejoin:round;stroke-miterlimit:10"/></svg>